<?xml version="1.0" encoding="UTF-8" standalone="no"?>
<svg
   width="448.07617pt"
   height="148.26958pt"
   viewBox="0 0 448.07617 148.26958"
   version="1.1"
   id="svg10"
   sodipodi:docname="condor logo.svg"
   inkscape:version="1.3 (0e150ed6c4, 2023-07-21)"
   xmlns:inkscape="http://www.inkscape.org/namespaces/inkscape"
   xmlns:sodipodi="http://sodipodi.sourceforge.net/DTD/sodipodi-0.dtd"
   xmlns="http://www.w3.org/2000/svg"
   xmlns:svg="http://www.w3.org/2000/svg">
  <defs
     id="defs10" />
  <sodipodi:namedview
     id="namedview10"
     pagecolor="#ffffff"
     bordercolor="#666666"
     borderopacity="1.0"
     inkscape:showpageshadow="2"
     inkscape:pageopacity="0.0"
     inkscape:pagecheckerboard="0"
     inkscape:deskcolor="#d1d1d1"
     inkscape:document-units="pt"
     inkscape:zoom="2.1606776"
     inkscape:cx="292.73224"
     inkscape:cy="118.24994"
     inkscape:window-width="1920"
     inkscape:window-height="1017"
     inkscape:window-x="-8"
     inkscape:window-y="-8"
     inkscape:window-maximized="1"
     inkscape:current-layer="svg10" />
  <g
     id="#f7f7f7ff"
     transform="translate(-23.973842,-9.76)" />
  <g
     id="#101d4bff"
     transform="translate(-23.973842,-9.76)">
    <path
       fill="#101d4b"
       opacity="1"
       d="M 24.44,9.76 C 26.65,24.44 33.88,38.17 44.52,48.49 57.43,61.22 74.3,69.36 91.82,73.54 85.08,77.35 79.24,82.68 75.08,89.23 61.47,85.11 49.04,76.97 40.23,65.76 27.82,50.15 22.25,29.53 24.44,9.76 Z"
       id="path1" />
    <path
       fill="#101d4b"
       opacity="1"
       d="M 35.77,87.29 C 28.47,75.66 24.85,61.82 25.1,48.12 32.82,69.48 50.13,87.85 72.21,94.34 69.02,100.1 67.8,106.7 67.45,113.21 54.63,107.98 43.13,99.12 35.77,87.29 Z"
       id="path2" />
    <path
       fill="#101d4b"
       opacity="1"
       d="M 72.61,61.37 C 96.5,49.15 126.96,54.21 147.23,71.23 131.55,65.78 113.19,62.27 97.8,70.42 88.99,68.71 80.71,65.11 72.61,61.37 Z"
       id="path3" />
    <path
       fill="#101d4b"
       opacity="1"
       d="m 334.23,64.97 c 4.77,-2.65 10.18,-3.96 15.63,-3.96 -0.01,21.68 0.1,43.36 -0.05,65.04 -0.14,16.8 -14.88,32.04 -31.83,31.95 -16.3,0.75 -31.14,-12.87 -32.83,-28.9 -1.94,-13.62 5.49,-27.98 17.85,-34.08 8.55,-4.46 19.03,-4.39 27.8,-0.57 0.2,5.66 -0.02,11.32 0.13,16.99 -2.86,-4.56 -7.34,-8.75 -13.01,-8.9 -6.36,-0.32 -11.8,4.38 -14.5,9.8 -4.75,9.4 -3.77,21.88 3.39,29.81 3.74,4.23 10.08,6.38 15.42,3.97 7.96,-3.59 12.01,-12.77 12.01,-21.15 0,-20 0.03,-40 -0.01,-60 z"
       id="path4" />
    <path
       fill="#101d4b"
       opacity="1"
       d="m 112.54,74.27 c 10.54,-1.97 22.06,-0.72 31.19,5.2 -1.43,3.2 -3.45,6.09 -5.89,8.6 -10.15,-8.5 -26.83,-6.68 -34.78,3.94 -6.65,8.37 -8.36,19.75 -6.9,30.11 1.25,8.8 5.59,17.65 13.39,22.38 8.61,5.5 20.45,4.55 28.43,-1.69 2.36,2.53 4.39,5.36 5.74,8.56 -9.33,5.83 -20.94,7.24 -31.6,5.05 -12.43,-2.58 -23.72,-10.73 -29.61,-22.05 -6.19,-11.38 -6.3,-25.8 -0.36,-37.3 5.88,-11.78 17.54,-20.27 30.39,-22.8 z"
       id="path5" />
    <path
       fill="#101d4b"
       opacity="1"
       d="m 29.45,83.97 c 7.09,16.35 21.82,28.31 38.11,34.83 0.6,9.08 3.96,17.82 9.55,25 C 64.06,138.34 52.18,129.76 43.72,118.35 36.2,108.31 31.31,96.36 29.45,83.97 Z"
       id="path6" />
    <path
       fill="#101d4b"
       opacity="1"
       d="m 169.2,92.27 c 14.69,-3.6 30.85,4.9 36.6,18.8 7.19,15.34 0.5,35.49 -14.71,43.11 -13.5,7.57 -31.93,3.1 -40.73,-9.54 -9.53,-12.5 -8.37,-31.5 2.43,-42.87 4.39,-4.66 10.14,-8.09 16.41,-9.5 m 2.96,10.78 c -12.27,4.9 -15.57,21.33 -10.63,32.57 2.31,5.53 7.11,10.63 13.32,11.29 6.08,0.74 11.68,-3.3 14.64,-8.34 5.53,-9.39 4.9,-22.37 -2.24,-30.76 -3.59,-4.27 -9.66,-6.67 -15.09,-4.76 z"
       id="path7" />
    <path
       fill="#101d4b"
       opacity="1"
       d="m 228.41,97.47 c 9.88,-7.69 24.72,-7.97 34.96,-0.82 8.91,5.98 13.79,16.82 13.87,27.39 0.03,9.29 -0.02,18.59 0.02,27.89 -4.78,2.59 -10.12,4.06 -15.57,4.06 -0.03,-10.68 0.04,-21.35 -0.03,-32.02 -0.19,-6.68 -2.04,-13.88 -7.16,-18.5 -4.35,-4.06 -11.65,-4.05 -16.06,-0.09 -5.25,4.58 -7.12,11.89 -7.29,18.62 -0.06,9.31 -0.01,18.62 -0.02,27.93 -4.77,2.55 -10.07,4.06 -15.5,4.06 0.01,-10.66 -0.05,-21.33 0.03,-31.99 0.13,-10.1 4.58,-20.38 12.75,-26.53 z"
       id="path8" />
    <path
       fill="#101d4b"
       opacity="1"
       d="m 382.25,92.25 c 14.95,-3.64 31.35,5.3 36.85,19.58 6.68,15.25 -0.1,34.83 -15.03,42.35 -13.5,7.57 -31.94,3.1 -40.74,-9.56 -10.04,-13.05 -8.17,-33.24 3.93,-44.35 4.18,-3.91 9.39,-6.76 14.99,-8.02 m 2.84,10.81 c -2.52,0.85 -4.76,2.44 -6.55,4.39 -7.45,8.45 -8.19,21.79 -2.4,31.34 2.72,4.45 7.4,8.15 12.82,8.2 5.95,0.14 11.12,-4.05 13.88,-9.07 5.11,-9.32 4.36,-21.87 -2.58,-30.08 -3.59,-4.3 -9.72,-6.71 -15.17,-4.78 z"
       id="path9" />
    <path
       fill="#101d4b"
       opacity="1"
       d="m 448.7,95.8 c 7.34,-3.15 15.88,-3.28 23.35,-0.45 -1.41,3.35 -2.89,6.66 -4.32,9.98 -4.36,-1.44 -9.43,-1.55 -13.43,0.95 -6.66,4.04 -9.93,12.11 -10.04,19.66 -0.04,8.62 0,17.24 -0.01,25.86 -4.8,2.58 -10.18,3.91 -15.62,3.92 0.01,-9.9 -0.03,-19.8 0.01,-29.7 -0.01,-12.84 8.17,-25.29 20.06,-30.22 z"
       id="path10" />
  </g>
</svg>
